<?xml version="1.0" encoding="utf-8"?>
<!-- Generator: Adobe Illustrator 25.4.6, SVG Export Plug-In . SVG Version: 6.00 Build 0)  -->
<svg version="1.1" id="Calque_1" xmlns="http://www.w3.org/2000/svg" xmlns:xlink="http://www.w3.org/1999/xlink" x="0px" y="0px"
	 viewBox="0 0 286.8 165.5" style="enable-background:new 0 0 286.8 165.5;" xml:space="preserve">
<style type="text/css">
	.st0{fill:none;stroke:#000000;stroke-width:14;stroke-linecap:round;stroke-miterlimit:10;}
	.st1{fill:none;stroke:#000000;stroke-width:12;stroke-linecap:round;stroke-linejoin:round;stroke-miterlimit:10;}
	.st2{fill:none;stroke:#000000;stroke-width:16;stroke-linecap:round;stroke-linejoin:round;stroke-miterlimit:10;}
	.st3{fill:none;stroke:#000000;stroke-width:8;stroke-linecap:round;stroke-miterlimit:10;}
</style>
<line class="st0" x1="-108.1" y1="-544.8" x2="-51.6" y2="-488.3"/>
<line class="st0" x1="-51.6" y1="-544.8" x2="-108.1" y2="-488.3"/>
<line class="st0" x1="457.6" y1="-78.6" x2="485.8" y2="-50.3"/>
<line class="st0" x1="485.8" y1="-78.6" x2="457.6" y2="-50.3"/>
<line class="st0" x1="162.6" y1="-433.2" x2="125.5" y2="-396.2"/>
<line class="st0" x1="163.3" y1="-432.6" x2="200.4" y2="-395.5"/>
<path d="M48.1-314.1l-53.3-30.8c-9.2-5.3-20.8,1.3-20.8,12v61.6c0,10.7,11.5,17.3,20.8,12l53.3-30.8
	C57.4-295.4,57.4-308.7,48.1-314.1z"/>
<path d="M384.2-177.1l-69.6-40.2c-5.6-3.2-12.7,0.8-12.7,7.3v80.3c0,6.5,7,10.6,12.7,7.3l69.6-40.2
	C389.8-165.8,389.8-173.9,384.2-177.1z"/>
<polyline class="st1" points="351.8,-475.8 351.8,-432 396.8,-432 "/>
<polyline class="st1" points="419.4,-453.9 419.4,-497.7 374.3,-497.7 "/>
<circle class="st1" cx="108" cy="-516.1" r="22.3"/>
<line class="st2" x1="148.9" y1="-473.6" x2="125.7" y2="-496.8"/>
<circle class="st2" cx="95.7" cy="-156.7" r="34.6"/>
<path d="M102-190.4H90.2c-2.5,0-4.5-2-4.5-4.5v-11.8c0-2.5,2-4.5,4.5-4.5H102c2.5,0,4.5,2,4.5,4.5v11.8
	C106.5-192.5,104.5-190.4,102-190.4z"/>
<path d="M102-101.2H90.2c-2.5,0-4.5-2-4.5-4.5v-11.8c0-2.5,2-4.5,4.5-4.5H102c2.5,0,4.5,2,4.5,4.5v11.8
	C106.5-103.2,104.5-101.2,102-101.2z"/>
<path d="M146.7-146.3h-11.8c-2.5,0-4.5-2-4.5-4.5v-11.8c0-2.5,2-4.5,4.5-4.5h11.8c2.5,0,4.5,2,4.5,4.5v11.8
	C151.2-148.3,149.2-146.3,146.7-146.3z"/>
<path d="M126.1-114.9l-8.4-8.4c-1.8-1.8-1.8-4.6,0-6.4l8.4-8.4c1.8-1.8,4.6-1.8,6.4,0l8.4,8.4c1.8,1.8,1.8,4.6,0,6.4l-8.4,8.4
	C130.8-113.1,127.9-113.1,126.1-114.9z"/>
<path d="M59.9-175.5l-8.4-8.4c-1.8-1.8-1.8-4.6,0-6.4l8.4-8.4c1.8-1.8,4.6-1.8,6.4,0l8.4,8.4c1.8,1.8,1.8,4.6,0,6.4l-8.4,8.4
	C64.6-173.7,61.7-173.7,59.9-175.5z"/>
<path d="M123.7-175.5l-8.4-8.4c-1.8-1.8-1.8-4.6,0-6.4l8.4-8.4c1.8-1.8,4.6-1.8,6.4,0l8.4,8.4c1.8,1.8,1.8,4.6,0,6.4l-8.4,8.4
	C128.3-173.7,125.5-173.7,123.7-175.5z"/>
<path d="M59.9-111.7l-8.4-8.4c-1.8-1.8-1.8-4.6,0-6.4l8.4-8.4c1.8-1.8,4.6-1.8,6.4,0l8.4,8.4c1.8,1.8,1.8,4.6,0,6.4l-8.4,8.4
	C64.6-109.9,61.7-109.9,59.9-111.7z"/>
<path d="M56.5-146.3H44.7c-2.5,0-4.5-2-4.5-4.5v-11.8c0-2.5,2-4.5,4.5-4.5h11.8c2.5,0,4.5,2,4.5,4.5v11.8
	C61-148.3,59-146.3,56.5-146.3z"/>
<path d="M309.7-341.8l27.5,22.8c1.3,1.1,2.9,1.6,4.5,1.6h12.2c3.9,0,7.1,3.2,7.1,7.1v26.2c0,3.9-3.2,7.1-7.1,7.1h-10.8
	c-1.5,0-3,0.5-4.3,1.4l-29.4,22.2c-4.7,3.5-11.3,0.2-11.3-5.6v-77.3C298.1-342.3,305.1-345.6,309.7-341.8z"/>
<path d="M535.1-387.5l27.5,22.8c1.3,1.1,2.9,1.6,4.5,1.6h12.2c3.9,0,7.1,3.2,7.1,7.1v26.2c0,3.9-3.2,7.1-7.1,7.1h-10.8
	c-1.5,0-3,0.5-4.3,1.4l-29.4,22.2c-4.7,3.5-11.3,0.2-11.3-5.6v-77.3C523.5-388.1,530.4-391.3,535.1-387.5z"/>
<path d="M511.6-108.5l27.5,22.8c1.3,1.1,2.9,1.6,4.5,1.6h12.2c3.9,0,7.1,3.2,7.1,7.1v26.2c0,3.9-3.2,7.1-7.1,7.1H545
	c-1.5,0-3,0.5-4.3,1.4l-29.4,22.2c-4.7,3.5-11.3,0.2-11.3-5.6v-77.3C500-109.1,507-112.3,511.6-108.5z"/>
<path d="M511.6-263.3l27.5,22.8c1.3,1.1,2.9,1.6,4.5,1.6h12.2c3.9,0,7.1,3.2,7.1,7.1v26.2c0,3.9-3.2,7.1-7.1,7.1H545
	c-1.5,0-3,0.5-4.3,1.4L511.3-175c-4.7,3.5-11.3,0.2-11.3-5.6v-77.3C500-263.9,507-267.2,511.6-263.3z"/>
<path class="st3" d="M286.8-313.6c-17.6,4.5-17.6,28.7,0,35.6"/>
<path class="st3" d="M484.9-236.5c-17.6,4.5-17.6,28.7,0,35.6"/>
<path class="st3" d="M284.1-333.3c-43,10.5-44.2,64.5,0,75"/>
<g>
	<path d="M273.7,23.5c-5.3,10.2-10.3,20.7-15.8,31.3c-2.8,5.3-5.7,10.6-8.9,15.9l-1.2,2l-1.3,1.9c-0.9,1.3-1.7,2.6-2.6,3.9
		c-1.8,2.5-3.6,5.1-5.6,7.6c-7.8,10-17.3,18.9-27.7,26.3c-10.4,7.5-21.8,13.3-33.4,18.1c-11.6,4.8-23.5,8.4-35.4,11.4l-4.5,1.1
		l-4.5,1c-3,0.6-6,1.3-9,1.9c-6,1.1-12,2.3-18,3.1c-24,3.7-48,5.8-71.9,7l0,0c-11.7,0.6-21.6-8.4-22.2-20.1
		c-0.6-11.7,8.4-21.6,20.1-22.2c0.7,0,1.4,0,2.1,0c22.8,1.2,45.6,1.5,68.1,0.3c5.6-0.2,11.2-0.8,16.8-1.2c2.8-0.3,5.5-0.6,8.3-0.9
		l4.2-0.5l4.1-0.6c11-1.6,21.8-3.8,32.2-6.9c20.9-6.1,39.8-16.2,54.7-31.7c1.9-1.9,3.7-4,5.5-6c0.9-1,1.7-2.1,2.6-3.2l1.3-1.6
		l1.3-1.7c3.4-4.4,6.6-9,9.7-13.8c6.3-9.6,12.3-19.7,18.9-29.6c2.1-3.2,6.5-4.1,9.7-2C274.4,16.4,275.4,20.3,273.7,23.5L273.7,23.5z
		"/>
</g>
</svg>
