<?xml version="1.0" encoding="UTF-8"?>
<svg id="Calque_2" data-name="Calque 2" xmlns="http://www.w3.org/2000/svg" viewBox="0 0 672.78 475.53">
  <defs>
    <style>
      .cls-1 {
        stroke-width: 0px;
      }
    </style>
  </defs>
  <g id="Calque_1-2" data-name="Calque 1">
    <path class="cls-1" d="m672.78,20.26c-34.35,1.19-68.53,4.36-102.2,9.98-33.66,5.63-66.82,13.64-98.93,24.5-32.1,10.85-63.17,24.35-92.75,40.42-29.59,16.06-57.67,34.68-83.97,55.49-26.33,20.79-50.77,43.88-73.43,68.59-22.65,24.73-43.48,51.14-62.61,78.76-38.28,55.28-69.79,115.29-96.33,177.52L0,446.66c31.81-63.92,68.95-125.68,113.31-182.33,22.17-28.3,46.13-55.28,71.99-80.37,25.86-25.08,53.56-48.33,83.1-68.96,29.51-20.66,60.73-38.82,93.24-54.06,32.5-15.26,66.25-27.6,100.66-37.03,34.42-9.43,69.53-15.75,104.74-19.53,35.22-3.77,70.57-4.96,105.75-4.11v20Z"/>
  </g>
</svg>