<?xml version="1.0" encoding="utf-8"?>
<!-- Generator: Adobe Illustrator 25.4.6, SVG Export Plug-In . SVG Version: 6.00 Build 0)  -->
<svg version="1.1" id="Calque_1" xmlns="http://www.w3.org/2000/svg" xmlns:xlink="http://www.w3.org/1999/xlink" x="0px" y="0px"
	 viewBox="0 0 94.7 88.4" style="enable-background:new 0 0 94.7 88.4;" xml:space="preserve">
<style type="text/css">
	.st0{fill:none;stroke:#000000;stroke-width:14;stroke-linecap:round;stroke-miterlimit:10;}
	.st1{fill:none;stroke:#000000;stroke-width:12;stroke-linecap:round;stroke-linejoin:round;stroke-miterlimit:10;}
</style>
<line class="st0" x1="-445.8" y1="-35.3" x2="-389.3" y2="21.2"/>
<line class="st0" x1="-389.3" y1="-35.3" x2="-445.8" y2="21.2"/>
<line class="st0" x1="-175.1" y1="76.2" x2="-212.2" y2="113.3"/>
<line class="st0" x1="-174.4" y1="76.9" x2="-137.3" y2="114"/>
<path d="M-289.5,195.4l-53.3-30.8c-9.2-5.3-20.8,1.3-20.8,12v61.6c0,10.7,11.5,17.3,20.8,12l53.3-30.8
	C-280.3,214.1-280.3,200.7-289.5,195.4z"/>
<path d="M46.5,332.3l-69.6-40.2c-5.6-3.2-12.7,0.8-12.7,7.3v80.3c0,6.5,7,10.6,12.7,7.3L46.5,347C52.1,343.7,52.1,335.6,46.5,332.3z
	"/>
<polyline class="st1" points="14.1,33.7 14.1,77.5 59.1,77.5 "/>
<polyline class="st1" points="81.7,55.6 81.7,11.7 36.6,11.7 "/>
</svg>
