<?xml version="1.0" encoding="utf-8"?>
<!-- Generator: Adobe Illustrator 25.4.6, SVG Export Plug-In . SVG Version: 6.00 Build 0)  -->
<svg version="1.1" id="Calque_1" xmlns="http://www.w3.org/2000/svg" xmlns:xlink="http://www.w3.org/1999/xlink" x="0px" y="0px"
	 viewBox="0 0 128.3 108.3" style="enable-background:new 0 0 128.3 108.3;" xml:space="preserve">
<style type="text/css">
	.st0{fill:none;stroke:#000000;stroke-width:14;stroke-linecap:round;stroke-miterlimit:10;}
	.st1{fill:none;stroke:#000000;stroke-width:12;stroke-linecap:round;stroke-linejoin:round;stroke-miterlimit:10;}
	.st2{fill:none;stroke:#000000;stroke-width:16;stroke-linecap:round;stroke-linejoin:round;stroke-miterlimit:10;}
	.st3{fill:none;stroke:#000000;stroke-width:8;stroke-linecap:round;stroke-miterlimit:10;}
</style>
<line class="st0" x1="-347.9" y1="-193.9" x2="-291.4" y2="-137.4"/>
<line class="st0" x1="-291.4" y1="-193.9" x2="-347.9" y2="-137.4"/>
<line class="st0" x1="-77.2" y1="-82.4" x2="-114.3" y2="-45.3"/>
<line class="st0" x1="-76.6" y1="-81.7" x2="-39.5" y2="-44.6"/>
<path d="M-191.7,36.8L-245.1,6c-9.2-5.3-20.8,1.3-20.8,12v61.6c0,10.7,11.5,17.3,20.8,12l53.3-30.8
	C-182.5,55.5-182.5,42.1-191.7,36.8z"/>
<path d="M144.3,173.7l-69.6-40.2c-5.6-3.2-12.7,0.8-12.7,7.3v80.3c0,6.5,7,10.6,12.7,7.3l69.6-40.2
	C149.9,185.1,149.9,177,144.3,173.7z"/>
<polyline class="st1" points="111.9,-125 111.9,-81.1 157,-81.1 "/>
<polyline class="st1" points="179.5,-103 179.5,-146.9 134.4,-146.9 "/>
<circle class="st1" cx="-131.9" cy="-165.3" r="22.3"/>
<line class="st2" x1="-90.9" y1="-122.7" x2="-114.2" y2="-146"/>
<circle class="st2" cx="-144.2" cy="194.2" r="34.6"/>
<path d="M-137.9,160.4h-11.8c-2.5,0-4.5-2-4.5-4.5v-11.8c0-2.5,2-4.5,4.5-4.5h11.8c2.5,0,4.5,2,4.5,4.5v11.8
	C-133.4,158.4-135.4,160.4-137.9,160.4z"/>
<path d="M-137.9,249.7h-11.8c-2.5,0-4.5-2-4.5-4.5v-11.8c0-2.5,2-4.5,4.5-4.5h11.8c2.5,0,4.5,2,4.5,4.5v11.8
	C-133.4,247.6-135.4,249.7-137.9,249.7z"/>
<path d="M-93.2,204.6H-105c-2.5,0-4.5-2-4.5-4.5v-11.8c0-2.5,2-4.5,4.5-4.5h11.8c2.5,0,4.5,2,4.5,4.5v11.8
	C-88.7,202.6-90.7,204.6-93.2,204.6z"/>
<path d="M-113.7,236l-8.4-8.4c-1.8-1.8-1.8-4.6,0-6.4l8.4-8.4c1.8-1.8,4.6-1.8,6.4,0l8.4,8.4c1.8,1.8,1.8,4.6,0,6.4l-8.4,8.4
	C-109.1,237.8-112,237.8-113.7,236z"/>
<path d="M-179.9,175.4l-8.4-8.4c-1.8-1.8-1.8-4.6,0-6.4l8.4-8.4c1.8-1.8,4.6-1.8,6.4,0l8.4,8.4c1.8,1.8,1.8,4.6,0,6.4l-8.4,8.4
	C-175.3,177.2-178.2,177.2-179.9,175.4z"/>
<path d="M-116.2,175.4l-8.4-8.4c-1.8-1.8-1.8-4.6,0-6.4l8.4-8.4c1.8-1.8,4.6-1.8,6.4,0l8.4,8.4c1.8,1.8,1.8,4.6,0,6.4l-8.4,8.4
	C-111.5,177.2-114.4,177.2-116.2,175.4z"/>
<path d="M-179.9,239.2l-8.4-8.4c-1.8-1.8-1.8-4.6,0-6.4l8.4-8.4c1.8-1.8,4.6-1.8,6.4,0l8.4,8.4c1.8,1.8,1.8,4.6,0,6.4l-8.4,8.4
	C-175.3,240.9-178.2,240.9-179.9,239.2z"/>
<path d="M-183.4,204.6h-11.8c-2.5,0-4.5-2-4.5-4.5v-11.8c0-2.5,2-4.5,4.5-4.5h11.8c2.5,0,4.5,2,4.5,4.5v11.8
	C-178.8,202.6-180.9,204.6-183.4,204.6z"/>
<path d="M69.8,9.1l27.5,22.8c1.3,1.1,2.9,1.6,4.5,1.6H114c3.9,0,7.1,3.2,7.1,7.1v26.2c0,3.9-3.2,7.1-7.1,7.1h-10.8
	c-1.5,0-3,0.5-4.3,1.4L69.5,97.5c-4.7,3.5-11.3,0.2-11.3-5.6V14.5C58.2,8.5,65.2,5.3,69.8,9.1z"/>
<path d="M295.2-36.6l27.5,22.8c1.3,1.1,2.9,1.6,4.5,1.6h12.2c3.9,0,7.1,3.2,7.1,7.1V21c0,3.9-3.2,7.1-7.1,7.1h-10.8
	c-1.5,0-3,0.5-4.3,1.4l-29.4,22.2c-4.7,3.5-11.3,0.2-11.3-5.6v-77.3C283.6-37.2,290.6-40.5,295.2-36.6z"/>
<path class="st3" d="M46.9,37.3c-17.6,4.5-17.6,28.7,0,35.6"/>
<path class="st3" d="M44.2,17.6C1.2,28,0,82,44.2,92.6"/>
</svg>
