<?xml version="1.0" encoding="utf-8"?>
<!-- Generator: Adobe Illustrator 25.4.6, SVG Export Plug-In . SVG Version: 6.00 Build 0)  -->
<svg version="1.1" id="Calque_1" xmlns="http://www.w3.org/2000/svg" xmlns:xlink="http://www.w3.org/1999/xlink" x="0px" y="0px"
	 viewBox="0 0 109 99.1" style="enable-background:new 0 0 109 99.1;" xml:space="preserve">
<style type="text/css">
	.st0{fill:none;stroke:#000000;stroke-width:14;stroke-linecap:round;stroke-miterlimit:10;}
	.st1{fill:none;stroke:#000000;stroke-width:12;stroke-linecap:round;stroke-linejoin:round;stroke-miterlimit:10;}
	.st2{fill:none;stroke:#000000;stroke-width:16;stroke-linecap:round;stroke-linejoin:round;stroke-miterlimit:10;}
	.st3{fill:none;stroke:#000000;stroke-width:8;stroke-linecap:round;stroke-miterlimit:10;}
</style>
<line class="st0" x1="-569.2" y1="-275.8" x2="-512.7" y2="-219.3"/>
<line class="st0" x1="-512.7" y1="-275.8" x2="-569.2" y2="-219.3"/>
<line class="st0" x1="-298.5" y1="-164.3" x2="-335.6" y2="-127.2"/>
<line class="st0" x1="-297.8" y1="-163.6" x2="-260.7" y2="-126.5"/>
<path d="M-412.9-45.1l-53.3-30.8c-9.2-5.3-20.8,1.3-20.8,12v61.6c0,10.7,11.5,17.3,20.8,12l53.3-30.8
	C-403.7-26.5-403.7-39.8-412.9-45.1z"/>
<path d="M-76.9,91.8l-69.6-40.2c-5.6-3.2-12.7,0.8-12.7,7.3v80.3c0,6.5,7,10.6,12.7,7.3l69.6-40.2C-71.3,103.2-71.3,95.1-76.9,91.8z
	"/>
<polyline class="st1" points="-109.3,-206.9 -109.3,-163 -64.3,-163 "/>
<polyline class="st1" points="-41.7,-185 -41.7,-228.8 -86.8,-228.8 "/>
<circle class="st1" cx="-353.1" cy="-247.2" r="22.3"/>
<line class="st2" x1="-312.2" y1="-204.6" x2="-335.4" y2="-227.9"/>
<circle class="st2" cx="-365.4" cy="112.2" r="34.6"/>
<path d="M-359.1,78.5h-11.8c-2.5,0-4.5-2-4.5-4.5V62.2c0-2.5,2-4.5,4.5-4.5h11.8c2.5,0,4.5,2,4.5,4.5V74
	C-354.6,76.5-356.6,78.5-359.1,78.5z"/>
<path d="M-359.1,167.7h-11.8c-2.5,0-4.5-2-4.5-4.5v-11.8c0-2.5,2-4.5,4.5-4.5h11.8c2.5,0,4.5,2,4.5,4.5v11.8
	C-354.6,165.7-356.6,167.7-359.1,167.7z"/>
<path d="M-314.4,122.7h-11.8c-2.5,0-4.5-2-4.5-4.5v-11.8c0-2.5,2-4.5,4.5-4.5h11.8c2.5,0,4.5,2,4.5,4.5v11.8
	C-309.9,120.6-311.9,122.7-314.4,122.7z"/>
<path d="M-334.9,154.1l-8.4-8.4c-1.8-1.8-1.8-4.6,0-6.4l8.4-8.4c1.8-1.8,4.6-1.8,6.4,0l8.4,8.4c1.8,1.8,1.8,4.6,0,6.4l-8.4,8.4
	C-330.3,155.9-333.2,155.9-334.9,154.1z"/>
<path d="M-401.2,93.5l-8.4-8.4c-1.8-1.8-1.8-4.6,0-6.4l8.4-8.4c1.8-1.8,4.6-1.8,6.4,0l8.4,8.4c1.8,1.8,1.8,4.6,0,6.4l-8.4,8.4
	C-396.5,95.3-399.4,95.3-401.2,93.5z"/>
<path d="M-337.4,93.5l-8.4-8.4c-1.8-1.8-1.8-4.6,0-6.4l8.4-8.4c1.8-1.8,4.6-1.8,6.4,0l8.4,8.4c1.8,1.8,1.8,4.6,0,6.4l-8.4,8.4
	C-332.7,95.3-335.6,95.3-337.4,93.5z"/>
<path d="M-401.2,157.3l-8.4-8.4c-1.8-1.8-1.8-4.6,0-6.4l8.4-8.4c1.8-1.8,4.6-1.8,6.4,0l8.4,8.4c1.8,1.8,1.8,4.6,0,6.4l-8.4,8.4
	C-396.5,159-399.4,159-401.2,157.3z"/>
<path d="M-404.6,122.7h-11.8c-2.5,0-4.5-2-4.5-4.5v-11.8c0-2.5,2-4.5,4.5-4.5h11.8c2.5,0,4.5,2,4.5,4.5v11.8
	C-400,120.6-402.1,122.7-404.6,122.7z"/>
<path d="M-151.4-72.8l27.5,22.8c1.3,1.1,2.9,1.6,4.5,1.6h12.2c3.9,0,7.1,3.2,7.1,7.1v26.2c0,3.9-3.2,7.1-7.1,7.1H-118
	c-1.5,0-3,0.5-4.3,1.4l-29.4,22.2c-4.7,3.5-11.3,0.2-11.3-5.6v-77.3C-163-73.4-156-76.7-151.4-72.8z"/>
<path d="M74-118.6l27.5,22.8c1.3,1.1,2.9,1.6,4.5,1.6h12.2c3.9,0,7.1,3.2,7.1,7.1v26.2c0,3.9-3.2,7.1-7.1,7.1h-10.8
	c-1.5,0-3,0.5-4.3,1.4L73.7-30.2c-4.7,3.5-11.3,0.2-11.3-5.6v-77.3C62.4-119.1,69.4-122.4,74-118.6z"/>
<path d="M50.5,5.6L78,28.4c1.3,1.1,2.9,1.6,4.5,1.6h12.2c3.9,0,7.1,3.2,7.1,7.1v26.2c0,3.9-3.2,7.1-7.1,7.1H83.9
	c-1.5,0-3,0.5-4.3,1.4L50.2,94c-4.7,3.5-11.3,0.2-11.3-5.6V11.1C38.9,5.1,45.9,1.8,50.5,5.6z"/>
<path class="st3" d="M-174.3-44.7c-17.6,4.5-17.6,28.7,0,35.6"/>
<path class="st3" d="M23.8,32.5c-17.6,4.5-17.6,28.7,0,35.6"/>
<path class="st3" d="M-177-64.3c-43,10.5-44.2,64.5,0,75"/>
</svg>
