<?xml version="1.0" encoding="utf-8"?>
<!-- Generator: Adobe Illustrator 25.4.6, SVG Export Plug-In . SVG Version: 6.00 Build 0)  -->
<svg version="1.1" id="Calque_1" xmlns="http://www.w3.org/2000/svg" xmlns:xlink="http://www.w3.org/1999/xlink" x="0px" y="0px"
	 viewBox="0 0 97.8 96.3" style="enable-background:new 0 0 97.8 96.3;" xml:space="preserve">
<style type="text/css">
	.st0{fill:none;stroke:#000000;stroke-width:14;stroke-linecap:round;stroke-miterlimit:10;}
	.st1{fill:none;stroke:#000000;stroke-width:12;stroke-linecap:round;stroke-linejoin:round;stroke-miterlimit:10;}
	.st2{fill:none;stroke:#000000;stroke-width:16;stroke-linecap:round;stroke-linejoin:round;stroke-miterlimit:10;}
</style>
<line class="st0" x1="-177" y1="10.5" x2="-120.5" y2="67"/>
<line class="st0" x1="-120.5" y1="10.5" x2="-177" y2="67"/>
<line class="st0" x1="93.7" y1="122" x2="56.6" y2="159.1"/>
<line class="st0" x1="94.4" y1="122.7" x2="131.5" y2="159.8"/>
<path d="M-20.8,241.2l-53.3-30.8c-9.2-5.3-20.8,1.3-20.8,12V284c0,10.7,11.5,17.3,20.8,12l53.3-30.8
	C-11.5,259.8-11.5,246.5-20.8,241.2z"/>
<path d="M315.3,378.1L245.7,338c-5.6-3.2-12.7,0.8-12.7,7.3v80.3c0,6.5,7,10.6,12.7,7.3l69.6-40.2
	C320.9,389.5,320.9,381.4,315.3,378.1z"/>
<polyline class="st1" points="282.9,79.4 282.9,123.3 327.9,123.3 "/>
<polyline class="st1" points="350.4,101.3 350.4,57.5 305.4,57.5 "/>
<circle class="st1" cx="39.1" cy="39.1" r="22.3"/>
<line class="st2" x1="80" y1="81.7" x2="56.8" y2="58.4"/>
</svg>
