<?xml version="1.0" encoding="utf-8"?>
<!-- Generator: Adobe Illustrator 25.4.6, SVG Export Plug-In . SVG Version: 6.00 Build 0)  -->
<svg version="1.1" id="Calque_1" xmlns="http://www.w3.org/2000/svg" xmlns:xlink="http://www.w3.org/1999/xlink" x="0px" y="0px"
	 viewBox="0 0 127.6 103.3" style="enable-background:new 0 0 127.6 103.3;" xml:space="preserve">
<style type="text/css">
	.st0{fill:none;stroke:#000000;stroke-width:14;stroke-linecap:round;stroke-miterlimit:10;}
	.st1{fill:none;stroke:#000000;stroke-width:12;stroke-linecap:round;stroke-linejoin:round;stroke-miterlimit:10;}
	.st2{fill:none;stroke:#000000;stroke-width:16;stroke-linecap:round;stroke-linejoin:round;stroke-miterlimit:10;}
	.st3{fill:none;stroke:#000000;stroke-width:8;stroke-linecap:round;stroke-miterlimit:10;}
</style>
<line class="st0" x1="-550.6" y1="-429.7" x2="-494.1" y2="-373.2"/>
<line class="st0" x1="-494.1" y1="-429.7" x2="-550.6" y2="-373.2"/>
<line class="st0" x1="15" y1="36.5" x2="43.2" y2="64.7"/>
<line class="st0" x1="43.2" y1="36.5" x2="15" y2="64.7"/>
<line class="st0" x1="-279.9" y1="-318.2" x2="-317" y2="-281.1"/>
<line class="st0" x1="-279.3" y1="-317.5" x2="-242.2" y2="-280.5"/>
<path d="M-394.4-199l-53.3-30.8c-9.2-5.3-20.8,1.3-20.8,12v61.6c0,10.7,11.5,17.3,20.8,12l53.3-30.8
	C-385.2-180.4-385.2-193.7-394.4-199z"/>
<path d="M-58.4-62.1l-69.6-40.2c-5.6-3.2-12.7,0.8-12.7,7.3v80.3c0,6.5,7,10.6,12.7,7.3l69.6-40.2C-52.8-50.7-52.8-58.8-58.4-62.1z"
	/>
<polyline class="st1" points="-90.8,-360.8 -90.8,-317 -45.7,-317 "/>
<polyline class="st1" points="-23.2,-338.9 -23.2,-382.7 -68.3,-382.7 "/>
<circle class="st1" cx="-334.6" cy="-401.1" r="22.3"/>
<line class="st2" x1="-293.6" y1="-358.5" x2="-316.9" y2="-381.8"/>
<circle class="st2" cx="-346.9" cy="-41.7" r="34.6"/>
<path d="M-340.6-75.4h-11.8c-2.5,0-4.5-2-4.5-4.5v-11.8c0-2.5,2-4.5,4.5-4.5h11.8c2.5,0,4.5,2,4.5,4.5v11.8
	C-336.1-77.4-338.1-75.4-340.6-75.4z"/>
<path d="M-340.6,13.8h-11.8c-2.5,0-4.5-2-4.5-4.5V-2.5c0-2.5,2-4.5,4.5-4.5h11.8c2.5,0,4.5,2,4.5,4.5V9.3
	C-336.1,11.8-338.1,13.8-340.6,13.8z"/>
<path d="M-295.9-31.2h-11.8c-2.5,0-4.5-2-4.5-4.5v-11.8c0-2.5,2-4.5,4.5-4.5h11.8c2.5,0,4.5,2,4.5,4.5v11.8
	C-291.4-33.3-293.4-31.2-295.9-31.2z"/>
<path d="M-316.4,0.2l-8.4-8.4c-1.8-1.8-1.8-4.6,0-6.4l8.4-8.4c1.8-1.8,4.6-1.8,6.4,0l8.4,8.4c1.8,1.8,1.8,4.6,0,6.4l-8.4,8.4
	C-311.8,2-314.7,2-316.4,0.2z"/>
<path d="M-382.6-60.4l-8.4-8.4c-1.8-1.8-1.8-4.6,0-6.4l8.4-8.4c1.8-1.8,4.6-1.8,6.4,0l8.4,8.4c1.8,1.8,1.8,4.6,0,6.4l-8.4,8.4
	C-378-58.7-380.9-58.7-382.6-60.4z"/>
<path d="M-318.9-60.4l-8.4-8.4c-1.8-1.8-1.8-4.6,0-6.4l8.4-8.4c1.8-1.8,4.6-1.8,6.4,0l8.4,8.4c1.8,1.8,1.8,4.6,0,6.4l-8.4,8.4
	C-314.2-58.7-317.1-58.7-318.9-60.4z"/>
<path d="M-382.6,3.3L-391-5c-1.8-1.8-1.8-4.6,0-6.4l8.4-8.4c1.8-1.8,4.6-1.8,6.4,0l8.4,8.4c1.8,1.8,1.8,4.6,0,6.4l-8.4,8.4
	C-378,5.1-380.9,5.1-382.6,3.3z"/>
<path d="M-386.1-31.2h-11.8c-2.5,0-4.5-2-4.5-4.5v-11.8c0-2.5,2-4.5,4.5-4.5h11.8c2.5,0,4.5,2,4.5,4.5v11.8
	C-381.5-33.3-383.6-31.2-386.1-31.2z"/>
<path d="M-132.9-226.8l27.5,22.8c1.3,1.1,2.9,1.6,4.5,1.6h12.2c3.9,0,7.1,3.2,7.1,7.1v26.2c0,3.9-3.2,7.1-7.1,7.1h-10.8
	c-1.5,0-3,0.5-4.3,1.4l-29.4,22.2c-4.7,3.5-11.3,0.2-11.3-5.6v-77.3C-144.5-227.3-137.5-230.6-132.9-226.8z"/>
<path d="M92.5-272.5l27.5,22.8c1.3,1.1,2.9,1.6,4.5,1.6h12.2c3.9,0,7.1,3.2,7.1,7.1v26.2c0,3.9-3.2,7.1-7.1,7.1h-10.8
	c-1.5,0-3,0.5-4.3,1.4l-29.4,22.2c-4.7,3.5-11.3,0.2-11.3-5.6V-267C80.9-273,87.9-276.3,92.5-272.5z"/>
<path d="M69,6.5l27.5,22.8c1.3,1.1,2.9,1.6,4.5,1.6h12.2c3.9,0,7.1,3.2,7.1,7.1v26.2c0,3.9-3.2,7.1-7.1,7.1h-10.8
	c-1.5,0-3,0.5-4.3,1.4L68.8,94.9c-4.7,3.5-11.3,0.2-11.3-5.6V12C57.4,6,64.4,2.7,69,6.5z"/>
<path d="M69-148.3l27.5,22.8c1.3,1.1,2.9,1.6,4.5,1.6h12.2c3.9,0,7.1,3.2,7.1,7.1v26.2c0,3.9-3.2,7.1-7.1,7.1h-10.8
	c-1.5,0-3,0.5-4.3,1.4L68.8-59.9c-4.7,3.5-11.3,0.2-11.3-5.6v-77.3C57.4-148.8,64.4-152.1,69-148.3z"/>
<path class="st3" d="M-155.8-198.6c-17.6,4.5-17.6,28.7,0,35.6"/>
<path class="st3" d="M42.3-121.5c-17.6,4.5-17.6,28.7,0,35.6"/>
<path class="st3" d="M-158.5-218.3c-43,10.5-44.2,64.5,0,75"/>
</svg>
