<?xml version="1.0" encoding="utf-8"?>
<!-- Generator: Adobe Illustrator 25.4.6, SVG Export Plug-In . SVG Version: 6.00 Build 0)  -->
<svg version="1.1" id="Calque_1" xmlns="http://www.w3.org/2000/svg" xmlns:xlink="http://www.w3.org/1999/xlink" x="0px" y="0px"
	 viewBox="0 0 100.2 106.4" style="enable-background:new 0 0 100.2 106.4;" xml:space="preserve">
<style type="text/css">
	.st0{fill:none;stroke:#000000;stroke-width:14;stroke-linecap:round;stroke-miterlimit:10;}
</style>
<line class="st0" x1="-401.2" y1="-320.2" x2="-344.7" y2="-263.7"/>
<line class="st0" x1="-344.7" y1="-320.2" x2="-401.2" y2="-263.7"/>
<line class="st0" x1="-130.5" y1="-208.6" x2="-167.6" y2="-171.6"/>
<line class="st0" x1="-129.8" y1="-208" x2="-92.7" y2="-170.9"/>
<path d="M-244.9-89.5l-53.3-30.8c-9.2-5.3-20.8,1.3-20.8,12v61.6c0,10.7,11.5,17.3,20.8,12l53.3-30.8
	C-235.7-70.8-235.7-84.1-244.9-89.5z"/>
<path d="M91.1,47.5L21.5,7.3C15.9,4.1,8.9,8.1,8.9,14.6V95c0,6.5,7,10.6,12.7,7.3l69.6-40.2C96.7,58.8,96.7,50.7,91.1,47.5z"/>
</svg>
