<?xml version="1.0" encoding="utf-8"?>
<!-- Generator: Adobe Illustrator 25.4.6, SVG Export Plug-In . SVG Version: 6.00 Build 0)  -->
<svg version="1.1" id="Calque_1" xmlns="http://www.w3.org/2000/svg" xmlns:xlink="http://www.w3.org/1999/xlink" x="0px" y="0px"
	 viewBox="0 0 75.7 100.7" style="enable-background:new 0 0 75.7 100.7;" xml:space="preserve">
<style type="text/css">
	.st0{fill:none;stroke:#000000;stroke-width:14;stroke-linecap:round;stroke-miterlimit:10;}
	.st1{fill:none;stroke:#000000;stroke-width:12;stroke-linecap:round;stroke-linejoin:round;stroke-miterlimit:10;}
	.st2{fill:none;stroke:#000000;stroke-width:16;stroke-linecap:round;stroke-linejoin:round;stroke-miterlimit:10;}
	.st3{fill:none;stroke:#000000;stroke-width:8;stroke-linecap:round;stroke-miterlimit:10;}
</style>
<line class="st0" x1="-624.5" y1="-150.6" x2="-568" y2="-94.1"/>
<line class="st0" x1="-568" y1="-150.6" x2="-624.5" y2="-94.1"/>
<line class="st0" x1="-353.8" y1="-39.1" x2="-390.9" y2="-2"/>
<line class="st0" x1="-353.1" y1="-38.4" x2="-316" y2="-1.3"/>
<path d="M-468.2,80.1l-53.3-30.8c-9.2-5.3-20.8,1.3-20.8,12v61.6c0,10.7,11.5,17.3,20.8,12l53.3-30.8C-459,98.8-459,85.4-468.2,80.1
	z"/>
<path d="M-132.2,217l-69.6-40.2c-5.6-3.2-12.7,0.8-12.7,7.3v80.3c0,6.5,7,10.6,12.7,7.3l69.6-40.2
	C-126.6,228.4-126.6,220.3-132.2,217z"/>
<polyline class="st1" points="-164.6,-81.7 -164.6,-37.8 -119.6,-37.8 "/>
<polyline class="st1" points="-97,-59.7 -97,-103.6 -142.1,-103.6 "/>
<circle class="st1" cx="-408.4" cy="-122" r="22.3"/>
<line class="st2" x1="-367.5" y1="-79.4" x2="-390.7" y2="-102.7"/>
<circle class="st2" cx="-420.7" cy="237.5" r="34.6"/>
<path d="M-414.4,203.7h-11.8c-2.5,0-4.5-2-4.5-4.5v-11.8c0-2.5,2-4.5,4.5-4.5h11.8c2.5,0,4.5,2,4.5,4.5v11.8
	C-409.9,201.7-411.9,203.7-414.4,203.7z"/>
<path d="M-414.4,293h-11.8c-2.5,0-4.5-2-4.5-4.5v-11.8c0-2.5,2-4.5,4.5-4.5h11.8c2.5,0,4.5,2,4.5,4.5v11.8
	C-409.9,290.9-411.9,293-414.4,293z"/>
<path d="M-369.7,247.9h-11.8c-2.5,0-4.5-2-4.5-4.5v-11.8c0-2.5,2-4.5,4.5-4.5h11.8c2.5,0,4.5,2,4.5,4.5v11.8
	C-365.2,245.9-367.2,247.9-369.7,247.9z"/>
<path d="M-390.2,279.3l-8.4-8.4c-1.8-1.8-1.8-4.6,0-6.4l8.4-8.4c1.8-1.8,4.6-1.8,6.4,0l8.4,8.4c1.8,1.8,1.8,4.6,0,6.4l-8.4,8.4
	C-385.6,281.1-388.5,281.1-390.2,279.3z"/>
<path d="M-456.5,218.7l-8.4-8.4c-1.8-1.8-1.8-4.6,0-6.4l8.4-8.4c1.8-1.8,4.6-1.8,6.4,0l8.4,8.4c1.8,1.8,1.8,4.6,0,6.4l-8.4,8.4
	C-451.8,220.5-454.7,220.5-456.5,218.7z"/>
<path d="M-392.7,218.7l-8.4-8.4c-1.8-1.8-1.8-4.6,0-6.4l8.4-8.4c1.8-1.8,4.6-1.8,6.4,0l8.4,8.4c1.8,1.8,1.8,4.6,0,6.4l-8.4,8.4
	C-388.1,220.5-390.9,220.5-392.7,218.7z"/>
<path d="M-456.5,282.5l-8.4-8.4c-1.8-1.8-1.8-4.6,0-6.4l8.4-8.4c1.8-1.8,4.6-1.8,6.4,0l8.4,8.4c1.8,1.8,1.8,4.6,0,6.4l-8.4,8.4
	C-451.8,284.2-454.7,284.2-456.5,282.5z"/>
<path d="M-459.9,247.9h-11.8c-2.5,0-4.5-2-4.5-4.5v-11.8c0-2.5,2-4.5,4.5-4.5h11.8c2.5,0,4.5,2,4.5,4.5v11.8
	C-455.3,245.9-457.4,247.9-459.9,247.9z"/>
<path d="M-206.7,52.4l27.5,22.8c1.3,1.1,2.9,1.6,4.5,1.6h12.2c3.9,0,7.1,3.2,7.1,7.1v26.2c0,3.9-3.2,7.1-7.1,7.1h-10.8
	c-1.5,0-3,0.5-4.3,1.4l-29.4,22.2c-4.7,3.5-11.3,0.2-11.3-5.6V57.8C-218.3,51.8-211.3,48.6-206.7,52.4z"/>
<path d="M18.7,6.7l27.5,22.8c1.3,1.1,2.9,1.6,4.5,1.6h12.2c3.9,0,7.1,3.2,7.1,7.1v26.2c0,3.9-3.2,7.1-7.1,7.1H52.1
	c-1.5,0-3,0.5-4.3,1.4L18.4,95c-4.7,3.5-11.3,0.2-11.3-5.6V12.1C7.1,6.1,14.1,2.8,18.7,6.7z"/>
<path class="st3" d="M-229.6,80.6c-17.6,4.5-17.6,28.7,0,35.6"/>
<path class="st3" d="M-232.3,60.9c-43,10.5-44.2,64.5,0,75"/>
</svg>
